<svg width="413" height="240" viewBox="0 0 413 240" fill="none" xmlns="http://www.w3.org/2000/svg">
<path d="M23.3973 0C36.0566 0 47.2973 1.96185 57.1192 5.88556C66.9411 9.80927 74.6895 15.5858 80.3644 23.2153C86.0393 30.6267 88.8767 39.782 88.8767 50.6812C88.8767 65.7221 84.4023 78.3651 75.4534 88.6104C66.5046 98.8556 55.3731 107.793 42.0589 115.422L87.5671 159.564C91.9324 152.153 95.752 144.414 99.026 136.349C102.3 128.065 105.028 119.782 107.211 111.499H157.958C154.684 123.706 149.882 136.785 143.552 150.736C137.222 164.687 129.147 177.766 119.325 189.973L167.452 236.73H107.211L88.8767 218.747C79.4913 225.286 69.0146 230.518 57.4466 234.441C45.8785 238.147 33.3283 240 19.7959 240C-6.83242 240 -27.6767 233.896 -42.737 221.689C-57.579 209.482 -65 193.46 -65 173.624C-65 157.057 -61.1804 143.869 -53.5411 134.06C-45.9018 124.033 -35.4251 115.204 -22.111 107.575C-30.6233 97.7657 -36.6256 88.7193 -40.1178 80.436C-43.3918 72.1526 -45.0288 63.3243 -45.0288 53.951C-45.0288 42.8338 -42.1913 33.2425 -36.5164 25.1771C-30.6233 17.1117 -22.5475 10.8992 -12.289 6.5395C-1.81233 2.17983 10.0831 0 23.3973 0ZM23.0699 37.6022C17.6132 37.6022 12.3749 39.0191 7.35479 41.8529C2.55296 44.4687 0.152054 49.5913 0.152054 57.2207C0.152054 62.6703 1.46164 67.9019 4.08083 72.9155C6.91826 77.9292 10.6288 83.0518 15.2123 88.2834C24.3795 83.2698 31.3639 78.2561 36.1658 73.2425C41.1858 68.2289 43.6959 62.4523 43.6959 55.9128C43.6959 49.3733 41.5132 44.6867 37.1479 41.8529C32.7826 39.0191 28.09 37.6022 23.0699 37.6022ZM6.3726 136.676C0.261185 141.253 -4.64977 146.158 -8.36027 151.39C-11.8525 156.403 -13.5986 162.289 -13.5986 169.046C-13.5986 178.42 -10.1064 185.831 -3.12191 191.281C3.86256 196.512 12.5932 199.128 23.0699 199.128C30.0543 199.128 36.6023 198.256 42.7137 196.512C48.8251 194.768 54.3909 192.371 59.411 189.319L6.3726 136.676Z" fill="#F3F3F3"/>
<path d="M268.945 0C281.605 0 292.845 1.96185 302.667 5.88556C312.489 9.80927 320.237 15.5858 325.912 23.2153C331.587 30.6267 334.425 39.782 334.425 50.6812C334.425 65.7221 329.95 78.3651 321.001 88.6104C312.052 98.8556 300.921 107.793 287.607 115.422L333.115 159.564C337.48 152.153 341.3 144.414 344.574 136.349C347.848 128.065 350.576 119.782 352.759 111.499H403.505C400.231 123.706 395.43 136.785 389.1 150.736C382.77 164.687 374.694 177.766 364.873 189.973L413 236.73H352.759L334.425 218.747C325.039 225.286 314.563 230.518 302.995 234.441C291.426 238.147 278.876 240 265.344 240C238.716 240 217.871 233.896 202.811 221.689C187.969 209.482 180.548 193.46 180.548 173.624C180.548 157.057 184.368 143.869 192.007 134.06C199.646 124.033 210.123 115.204 223.437 107.575C214.925 97.7657 208.922 88.7193 205.43 80.436C202.156 72.1526 200.519 63.3243 200.519 53.951C200.519 42.8338 203.357 33.2425 209.031 25.1771C214.925 17.1117 223 10.8992 233.259 6.5395C243.736 2.17983 255.631 0 268.945 0ZM268.618 37.6022C263.161 37.6022 257.923 39.0191 252.903 41.8529C248.101 44.4687 245.7 49.5913 245.7 57.2207C245.7 62.6703 247.01 67.9019 249.629 72.9155C252.466 77.9292 256.177 83.0518 260.76 88.2834C269.927 83.2698 276.912 78.2561 281.714 73.2425C286.734 68.2289 289.244 62.4523 289.244 55.9128C289.244 49.3733 287.061 44.6867 282.696 41.8529C278.331 39.0191 273.638 37.6022 268.618 37.6022ZM251.921 136.676C245.809 141.253 240.898 146.158 237.188 151.39C233.695 156.403 231.949 162.289 231.949 169.046C231.949 178.42 235.442 185.831 242.426 191.281C249.41 196.512 258.141 199.128 268.618 199.128C275.602 199.128 282.15 198.256 288.262 196.512C294.373 194.768 299.939 192.371 304.959 189.319L251.921 136.676Z" fill="#F3F3F3"/>
</svg>
