<svg width="61" height="30" viewBox="0 0 61 30" fill="none" xmlns="http://www.w3.org/2000/svg">
<path fill-rule="evenodd" clip-rule="evenodd" d="M22.8184 2.53968C20.7569 0.846561 17.7713 0 13.8616 0C11.8001 0 9.80976 0.229277 7.89046 0.687831C6.0067 1.14639 4.28288 1.78131 2.71901 2.59259L5.33139 7.93651C6.68201 7.33686 8.03263 6.84303 9.38325 6.45503C10.7339 6.03175 12.12 5.82011 13.5417 5.82011C14.9634 5.82011 16.0653 6.17284 16.8472 6.87831C17.6647 7.58378 18.0734 8.69489 18.0734 10.2116V11.4815L13.0086 11.6402C8.67239 11.7813 5.42025 12.5926 3.25215 14.0741C1.08405 15.5203 0 17.7778 0 20.8466C0 23.9506 0.853022 26.261 2.55907 27.7778C4.26511 29.2593 6.41544 30 9.01005 30C11.4269 30 13.3285 29.6473 14.7146 28.9418C16.1008 28.2363 17.4159 27.1076 18.6599 25.5556H18.8731L20.4192 29.4709H25.9639V10.2116C25.9639 9.77114 25.9468 9.34525 25.9128 8.93397L25.9181 8.94678C25.9361 8.90948 25.9543 8.87255 25.9728 8.83598C26.8258 7.17813 28.3541 6.34921 30.5578 6.34921C33.4722 6.34921 34.9295 8.43034 34.9295 12.5926V29.4709H42.8733V14.9735C42.8733 12.1869 43.3175 10.0529 44.2061 8.57143C45.0947 7.08995 46.5875 6.34921 48.6845 6.34921C51.599 6.34921 53.0562 8.43034 53.0562 12.5926V29.4709H61V10.6349C61 6.93122 60.147 4.25044 58.4409 2.59259C56.7704 0.89947 54.2824 0.0529087 50.977 0.0529087C49.3065 0.0529087 47.6715 0.388007 46.0721 1.0582C44.5082 1.7284 43.282 2.80423 42.3934 4.28572H41.7004C40.9184 2.83951 39.7811 1.78131 38.2883 1.11111C36.7955 0.405643 34.9828 0.0529087 32.8503 0.0529087C31.1797 0.0529087 29.5626 0.388007 27.9987 1.0582C26.4857 1.72168 25.2862 2.7827 24.4002 4.24127C23.9641 3.59583 23.4368 3.02864 22.8184 2.53968ZM14.9812 16.1905L18.0734 16.0847V18.4656C18.0734 20.2998 17.487 21.7284 16.3141 22.7513C15.1411 23.739 13.7017 24.2328 11.9956 24.2328C10.8583 24.2328 9.93416 23.9859 9.22331 23.4921C8.51245 22.963 8.15703 22.0988 8.15703 20.8995C8.15703 19.5238 8.65462 18.4127 9.64982 17.5661C10.645 16.7196 12.4221 16.261 14.9812 16.1905Z" fill="white"/>
</svg>
